<svg xmlns="http://www.w3.org/2000/svg" viewBox="0 0 780 320" font-family="Segoe UI, Verdana, sans-serif">
<rect x="2" y="2" width="776" height="316" rx="16" fill="#FAF7F0" stroke="#E8E0D0" stroke-width="2"/>
<text x="390" y="34" font-size="19" font-weight="bold" fill="#1A1A2E" text-anchor="middle">📈 La batterie : 42 → 108 contrôles (avec le creux honnête)</text>
<circle cx="50.0" cy="177.5" r="5" fill="#1E9E6A" stroke="#fff" stroke-width="2"/>
<text x="50.0" y="167.5" font-size="11" font-weight="bold" fill="#1E9E6A" text-anchor="middle">42</text>
<text x="50.0" y="268" font-size="10" fill="#1A1A2E" text-anchor="middle">v0.1</text>
<line x1="50.0" y1="177.5" x2="102.3" y2="110.1" stroke="#1E9E6A" stroke-width="3"/>
<circle cx="102.3" cy="110.1" r="5" fill="#1E9E6A" stroke="#fff" stroke-width="2"/>
<text x="102.3" y="100.1" font-size="11" font-weight="bold" fill="#1E9E6A" text-anchor="middle">81</text>
<text x="102.3" y="268" font-size="10" fill="#1A1A2E" text-anchor="middle">cerveau</text>
<line x1="102.3" y1="110.1" x2="154.6" y2="96.3" stroke="#1E9E6A" stroke-width="3"/>
<circle cx="154.6" cy="96.3" r="5" fill="#1E9E6A" stroke="#fff" stroke-width="2"/>
<text x="154.6" y="86.3" font-size="11" font-weight="bold" fill="#1E9E6A" text-anchor="middle">89</text>
<text x="154.6" y="268" font-size="10" fill="#1A1A2E" text-anchor="middle">route A</text>
<line x1="154.6" y1="96.3" x2="206.9" y2="89.4" stroke="#1E9E6A" stroke-width="3"/>
<circle cx="206.9" cy="89.4" r="5" fill="#1E9E6A" stroke="#fff" stroke-width="2"/>
<text x="206.9" y="79.4" font-size="11" font-weight="bold" fill="#1E9E6A" text-anchor="middle">93</text>
<text x="206.9" y="268" font-size="10" fill="#1A1A2E" text-anchor="middle">route B</text>
<line x1="206.9" y1="89.4" x2="259.2" y2="142.9" stroke="#1E9E6A" stroke-width="3"/>
<circle cx="259.2" cy="142.9" r="5" fill="#1E9E6A" stroke="#fff" stroke-width="2"/>
<text x="259.2" y="132.9" font-size="11" font-weight="bold" fill="#1E9E6A" text-anchor="middle">62</text>
<text x="259.2" y="268" font-size="10" fill="#1A1A2E" text-anchor="middle">creux C</text>
<line x1="259.2" y1="142.9" x2="311.5" y2="89.4" stroke="#1E9E6A" stroke-width="3"/>
<circle cx="311.5" cy="89.4" r="5" fill="#1E9E6A" stroke="#fff" stroke-width="2"/>
<text x="311.5" y="79.4" font-size="11" font-weight="bold" fill="#1E9E6A" text-anchor="middle">93</text>
<text x="311.5" y="268" font-size="10" fill="#1A1A2E" text-anchor="middle">route C</text>
<line x1="311.5" y1="89.4" x2="363.8" y2="75.5" stroke="#1E9E6A" stroke-width="3"/>
<circle cx="363.8" cy="75.5" r="5" fill="#1E9E6A" stroke="#fff" stroke-width="2"/>
<text x="363.8" y="65.5" font-size="11" font-weight="bold" fill="#1E9E6A" text-anchor="middle">101</text>
<text x="363.8" y="268" font-size="10" fill="#1A1A2E" text-anchor="middle">CISE</text>
<line x1="363.8" y1="75.5" x2="416.2" y2="73.8" stroke="#1E9E6A" stroke-width="3"/>
<circle cx="416.2" cy="73.8" r="5" fill="#1E9E6A" stroke="#fff" stroke-width="2"/>
<text x="416.2" y="63.8" font-size="11" font-weight="bold" fill="#1E9E6A" text-anchor="middle">102</text>
<text x="416.2" y="268" font-size="10" fill="#1A1A2E" text-anchor="middle">tok</text>
<line x1="416.2" y1="73.8" x2="468.5" y2="72.1" stroke="#1E9E6A" stroke-width="3"/>
<circle cx="468.5" cy="72.1" r="5" fill="#1E9E6A" stroke="#fff" stroke-width="2"/>
<text x="468.5" y="62.1" font-size="11" font-weight="bold" fill="#1E9E6A" text-anchor="middle">103</text>
<text x="468.5" y="268" font-size="10" fill="#1A1A2E" text-anchor="middle">marbre</text>
<line x1="468.5" y1="72.1" x2="520.8" y2="70.4" stroke="#1E9E6A" stroke-width="3"/>
<circle cx="520.8" cy="70.4" r="5" fill="#1E9E6A" stroke="#fff" stroke-width="2"/>
<text x="520.8" y="60.4" font-size="11" font-weight="bold" fill="#1E9E6A" text-anchor="middle">104</text>
<text x="520.8" y="268" font-size="10" fill="#1A1A2E" text-anchor="middle">marée</text>
<line x1="520.8" y1="70.4" x2="573.1" y2="68.6" stroke="#1E9E6A" stroke-width="3"/>
<circle cx="573.1" cy="68.6" r="5" fill="#1E9E6A" stroke="#fff" stroke-width="2"/>
<text x="573.1" y="58.6" font-size="11" font-weight="bold" fill="#1E9E6A" text-anchor="middle">105</text>
<text x="573.1" y="268" font-size="10" fill="#1A1A2E" text-anchor="middle">chaos</text>
<line x1="573.1" y1="68.6" x2="625.4" y2="66.9" stroke="#1E9E6A" stroke-width="3"/>
<circle cx="625.4" cy="66.9" r="5" fill="#1E9E6A" stroke="#fff" stroke-width="2"/>
<text x="625.4" y="56.9" font-size="11" font-weight="bold" fill="#1E9E6A" text-anchor="middle">106</text>
<text x="625.4" y="268" font-size="10" fill="#1A1A2E" text-anchor="middle">livre</text>
<line x1="625.4" y1="66.9" x2="677.7" y2="65.2" stroke="#1E9E6A" stroke-width="3"/>
<circle cx="677.7" cy="65.2" r="5" fill="#1E9E6A" stroke="#fff" stroke-width="2"/>
<text x="677.7" y="55.2" font-size="11" font-weight="bold" fill="#1E9E6A" text-anchor="middle">107</text>
<text x="677.7" y="268" font-size="10" fill="#1A1A2E" text-anchor="middle">route D</text>
<line x1="677.7" y1="65.2" x2="730.0" y2="63.5" stroke="#1E9E6A" stroke-width="3"/>
<circle cx="730.0" cy="63.5" r="5" fill="#1E9E6A" stroke="#fff" stroke-width="2"/>
<text x="730.0" y="53.5" font-size="11" font-weight="bold" fill="#1E9E6A" text-anchor="middle">108</text>
<text x="730.0" y="268" font-size="10" fill="#1A1A2E" text-anchor="middle">pont FOCAL</text>
<text x="50.0" y="282" font-size="9" fill="#6B7280" text-anchor="middle">6 oct.</text>
<text x="102.3" y="282" font-size="9" fill="#6B7280" text-anchor="middle">6 oct.</text>
<text x="154.6" y="282" font-size="9" fill="#6B7280" text-anchor="middle">6 oct.</text>
<text x="206.9" y="282" font-size="9" fill="#6B7280" text-anchor="middle">6 oct.</text>
<text x="259.2" y="282" font-size="9" fill="#6B7280" text-anchor="middle">6 oct.</text>
<text x="311.5" y="282" font-size="9" fill="#6B7280" text-anchor="middle">7 oct.</text>
<text x="363.8" y="282" font-size="9" fill="#6B7280" text-anchor="middle">7 oct.</text>
<text x="416.2" y="282" font-size="9" fill="#6B7280" text-anchor="middle">7 oct.</text>
<text x="468.5" y="282" font-size="9" fill="#6B7280" text-anchor="middle">7 oct.</text>
<text x="520.8" y="282" font-size="9" fill="#6B7280" text-anchor="middle">7 oct.</text>
<text x="573.1" y="282" font-size="9" fill="#6B7280" text-anchor="middle">7 oct.</text>
<text x="625.4" y="282" font-size="9" fill="#6B7280" text-anchor="middle">7 oct.</text>
<text x="677.7" y="282" font-size="9" fill="#6B7280" text-anchor="middle">7 oct.</text>
<text x="730.0" y="282" font-size="9" fill="#6B7280" text-anchor="middle">7 oct.</text>
<text x="390" y="300" font-size="11" font-style="italic" fill="#6B7280" text-anchor="middle">Le creux (62/93) : la loi v2 casse tout, le monde s'ajuste, tout remonte — sans toucher une règle.</text>
</svg>
