<svg xmlns="http://www.w3.org/2000/svg" viewBox="0 0 780 320" font-family="Segoe UI, Verdana, sans-serif">
<rect x="2" y="2" width="776" height="316" rx="16" fill="#FAF7F0" stroke="#E8E0D0" stroke-width="2"/>
<text x="390" y="34" font-size="19" font-weight="bold" fill="#1A1A2E" text-anchor="middle">📈 La batterie : 42 → 120 contrôles (avec le creux honnête)</text>
<circle cx="50.0" cy="177.5" r="5" fill="#1E9E6A" stroke="#fff" stroke-width="2"/>
<text x="50.0" y="167.5" font-size="11" font-weight="bold" fill="#1E9E6A" text-anchor="middle">42</text>
<text x="50.0" y="268" font-size="10" fill="#1A1A2E" text-anchor="middle">v0.1</text>
<line x1="50.0" y1="177.5" x2="77.2" y2="110.1" stroke="#1E9E6A" stroke-width="3"/>
<circle cx="77.2" cy="110.1" r="5" fill="#1E9E6A" stroke="#fff" stroke-width="2"/>
<text x="77.2" y="100.1" font-size="11" font-weight="bold" fill="#1E9E6A" text-anchor="middle">81</text>
<text x="77.2" y="268" font-size="10" fill="#1A1A2E" text-anchor="middle">cerveau</text>
<line x1="77.2" y1="110.1" x2="104.4" y2="96.3" stroke="#1E9E6A" stroke-width="3"/>
<circle cx="104.4" cy="96.3" r="5" fill="#1E9E6A" stroke="#fff" stroke-width="2"/>
<text x="104.4" y="86.3" font-size="11" font-weight="bold" fill="#1E9E6A" text-anchor="middle">89</text>
<text x="104.4" y="268" font-size="10" fill="#1A1A2E" text-anchor="middle">route A</text>
<line x1="104.4" y1="96.3" x2="131.6" y2="89.4" stroke="#1E9E6A" stroke-width="3"/>
<circle cx="131.6" cy="89.4" r="5" fill="#1E9E6A" stroke="#fff" stroke-width="2"/>
<text x="131.6" y="79.4" font-size="11" font-weight="bold" fill="#1E9E6A" text-anchor="middle">93</text>
<text x="131.6" y="268" font-size="10" fill="#1A1A2E" text-anchor="middle">route B</text>
<line x1="131.6" y1="89.4" x2="158.8" y2="142.9" stroke="#1E9E6A" stroke-width="3"/>
<circle cx="158.8" cy="142.9" r="5" fill="#1E9E6A" stroke="#fff" stroke-width="2"/>
<text x="158.8" y="132.9" font-size="11" font-weight="bold" fill="#1E9E6A" text-anchor="middle">62</text>
<text x="158.8" y="268" font-size="10" fill="#1A1A2E" text-anchor="middle">creux C</text>
<line x1="158.8" y1="142.9" x2="186.0" y2="89.4" stroke="#1E9E6A" stroke-width="3"/>
<circle cx="186.0" cy="89.4" r="5" fill="#1E9E6A" stroke="#fff" stroke-width="2"/>
<text x="186.0" y="79.4" font-size="11" font-weight="bold" fill="#1E9E6A" text-anchor="middle">93</text>
<text x="186.0" y="268" font-size="10" fill="#1A1A2E" text-anchor="middle">route C</text>
<line x1="186.0" y1="89.4" x2="213.2" y2="75.5" stroke="#1E9E6A" stroke-width="3"/>
<circle cx="213.2" cy="75.5" r="5" fill="#1E9E6A" stroke="#fff" stroke-width="2"/>
<text x="213.2" y="65.5" font-size="11" font-weight="bold" fill="#1E9E6A" text-anchor="middle">101</text>
<text x="213.2" y="268" font-size="10" fill="#1A1A2E" text-anchor="middle">CISE</text>
<line x1="213.2" y1="75.5" x2="240.4" y2="73.8" stroke="#1E9E6A" stroke-width="3"/>
<circle cx="240.4" cy="73.8" r="5" fill="#1E9E6A" stroke="#fff" stroke-width="2"/>
<text x="240.4" y="63.8" font-size="11" font-weight="bold" fill="#1E9E6A" text-anchor="middle">102</text>
<text x="240.4" y="268" font-size="10" fill="#1A1A2E" text-anchor="middle">tok</text>
<line x1="240.4" y1="73.8" x2="267.6" y2="72.1" stroke="#1E9E6A" stroke-width="3"/>
<circle cx="267.6" cy="72.1" r="5" fill="#1E9E6A" stroke="#fff" stroke-width="2"/>
<text x="267.6" y="62.1" font-size="11" font-weight="bold" fill="#1E9E6A" text-anchor="middle">103</text>
<text x="267.6" y="268" font-size="10" fill="#1A1A2E" text-anchor="middle">marbre</text>
<line x1="267.6" y1="72.1" x2="294.8" y2="70.4" stroke="#1E9E6A" stroke-width="3"/>
<circle cx="294.8" cy="70.4" r="5" fill="#1E9E6A" stroke="#fff" stroke-width="2"/>
<text x="294.8" y="60.4" font-size="11" font-weight="bold" fill="#1E9E6A" text-anchor="middle">104</text>
<text x="294.8" y="268" font-size="10" fill="#1A1A2E" text-anchor="middle">marée</text>
<line x1="294.8" y1="70.4" x2="322.0" y2="68.6" stroke="#1E9E6A" stroke-width="3"/>
<circle cx="322.0" cy="68.6" r="5" fill="#1E9E6A" stroke="#fff" stroke-width="2"/>
<text x="322.0" y="58.6" font-size="11" font-weight="bold" fill="#1E9E6A" text-anchor="middle">105</text>
<text x="322.0" y="268" font-size="10" fill="#1A1A2E" text-anchor="middle">chaos</text>
<line x1="322.0" y1="68.6" x2="349.2" y2="66.9" stroke="#1E9E6A" stroke-width="3"/>
<circle cx="349.2" cy="66.9" r="5" fill="#1E9E6A" stroke="#fff" stroke-width="2"/>
<text x="349.2" y="56.9" font-size="11" font-weight="bold" fill="#1E9E6A" text-anchor="middle">106</text>
<text x="349.2" y="268" font-size="10" fill="#1A1A2E" text-anchor="middle">livre</text>
<line x1="349.2" y1="66.9" x2="376.4" y2="65.2" stroke="#1E9E6A" stroke-width="3"/>
<circle cx="376.4" cy="65.2" r="5" fill="#1E9E6A" stroke="#fff" stroke-width="2"/>
<text x="376.4" y="55.2" font-size="11" font-weight="bold" fill="#1E9E6A" text-anchor="middle">107</text>
<text x="376.4" y="268" font-size="10" fill="#1A1A2E" text-anchor="middle">route D</text>
<line x1="376.4" y1="65.2" x2="403.6" y2="63.5" stroke="#1E9E6A" stroke-width="3"/>
<circle cx="403.6" cy="63.5" r="5" fill="#1E9E6A" stroke="#fff" stroke-width="2"/>
<text x="403.6" y="53.5" font-size="11" font-weight="bold" fill="#1E9E6A" text-anchor="middle">108</text>
<text x="403.6" y="268" font-size="10" fill="#1A1A2E" text-anchor="middle">pont FOCAL</text>
<line x1="403.6" y1="63.5" x2="430.8" y2="61.7" stroke="#1E9E6A" stroke-width="3"/>
<circle cx="430.8" cy="61.7" r="5" fill="#1E9E6A" stroke="#fff" stroke-width="2"/>
<text x="430.8" y="51.7" font-size="11" font-weight="bold" fill="#1E9E6A" text-anchor="middle">109</text>
<text x="430.8" y="268" font-size="10" fill="#1A1A2E" text-anchor="middle">R5</text>
<line x1="430.8" y1="61.7" x2="458.0" y2="60.0" stroke="#1E9E6A" stroke-width="3"/>
<circle cx="458.0" cy="60.0" r="5" fill="#1E9E6A" stroke="#fff" stroke-width="2"/>
<text x="458.0" y="50.0" font-size="11" font-weight="bold" fill="#1E9E6A" text-anchor="middle">110</text>
<text x="458.0" y="268" font-size="10" fill="#1A1A2E" text-anchor="middle">direct</text>
<line x1="458.0" y1="60.0" x2="485.2" y2="58.3" stroke="#1E9E6A" stroke-width="3"/>
<circle cx="485.2" cy="58.3" r="5" fill="#1E9E6A" stroke="#fff" stroke-width="2"/>
<text x="485.2" y="48.3" font-size="11" font-weight="bold" fill="#1E9E6A" text-anchor="middle">111</text>
<text x="485.2" y="268" font-size="10" fill="#1A1A2E" text-anchor="middle">dialogue</text>
<line x1="485.2" y1="58.3" x2="512.4" y2="56.5" stroke="#1E9E6A" stroke-width="3"/>
<circle cx="512.4" cy="56.5" r="5" fill="#1E9E6A" stroke="#fff" stroke-width="2"/>
<text x="512.4" y="46.5" font-size="11" font-weight="bold" fill="#1E9E6A" text-anchor="middle">112</text>
<text x="512.4" y="268" font-size="10" fill="#1A1A2E" text-anchor="middle">masse</text>
<line x1="512.4" y1="56.5" x2="539.6" y2="54.8" stroke="#1E9E6A" stroke-width="3"/>
<circle cx="539.6" cy="54.8" r="5" fill="#1E9E6A" stroke="#fff" stroke-width="2"/>
<text x="539.6" y="44.8" font-size="11" font-weight="bold" fill="#1E9E6A" text-anchor="middle">113</text>
<text x="539.6" y="268" font-size="10" fill="#1A1A2E" text-anchor="middle">colab1h</text>
<line x1="539.6" y1="54.8" x2="566.8" y2="53.1" stroke="#1E9E6A" stroke-width="3"/>
<circle cx="566.8" cy="53.1" r="5" fill="#1E9E6A" stroke="#fff" stroke-width="2"/>
<text x="566.8" y="43.1" font-size="11" font-weight="bold" fill="#1E9E6A" text-anchor="middle">114</text>
<text x="566.8" y="268" font-size="10" fill="#1A1A2E" text-anchor="middle">puissance</text>
<line x1="566.8" y1="53.1" x2="594.0" y2="51.4" stroke="#1E9E6A" stroke-width="3"/>
<circle cx="594.0" cy="51.4" r="5" fill="#1E9E6A" stroke="#fff" stroke-width="2"/>
<text x="594.0" y="41.4" font-size="11" font-weight="bold" fill="#1E9E6A" text-anchor="middle">115</text>
<text x="594.0" y="268" font-size="10" fill="#1A1A2E" text-anchor="middle">fortifie</text>
<line x1="594.0" y1="51.4" x2="621.2" y2="49.6" stroke="#1E9E6A" stroke-width="3"/>
<circle cx="621.2" cy="49.6" r="5" fill="#1E9E6A" stroke="#fff" stroke-width="2"/>
<text x="621.2" y="39.6" font-size="11" font-weight="bold" fill="#1E9E6A" text-anchor="middle">116</text>
<text x="621.2" y="268" font-size="10" fill="#1A1A2E" text-anchor="middle">relais</text>
<line x1="621.2" y1="49.6" x2="648.4" y2="47.9" stroke="#1E9E6A" stroke-width="3"/>
<circle cx="648.4" cy="47.9" r="5" fill="#1E9E6A" stroke="#fff" stroke-width="2"/>
<text x="648.4" y="37.9" font-size="11" font-weight="bold" fill="#1E9E6A" text-anchor="middle">117</text>
<text x="648.4" y="268" font-size="10" fill="#1A1A2E" text-anchor="middle">retour</text>
<line x1="648.4" y1="47.9" x2="675.6" y2="46.2" stroke="#1E9E6A" stroke-width="3"/>
<circle cx="675.6" cy="46.2" r="5" fill="#1E9E6A" stroke="#fff" stroke-width="2"/>
<text x="675.6" y="36.2" font-size="11" font-weight="bold" fill="#1E9E6A" text-anchor="middle">118</text>
<text x="675.6" y="268" font-size="10" fill="#1A1A2E" text-anchor="middle">fige</text>
<line x1="675.6" y1="46.2" x2="702.8" y2="44.5" stroke="#1E9E6A" stroke-width="3"/>
<circle cx="702.8" cy="44.5" r="5" fill="#1E9E6A" stroke="#fff" stroke-width="2"/>
<text x="702.8" y="34.5" font-size="11" font-weight="bold" fill="#1E9E6A" text-anchor="middle">119</text>
<text x="702.8" y="268" font-size="10" fill="#1A1A2E" text-anchor="middle">ecole</text>
<line x1="702.8" y1="44.5" x2="730.0" y2="42.7" stroke="#1E9E6A" stroke-width="3"/>
<circle cx="730.0" cy="42.7" r="5" fill="#1E9E6A" stroke="#fff" stroke-width="2"/>
<text x="730.0" y="32.7" font-size="11" font-weight="bold" fill="#1E9E6A" text-anchor="middle">120</text>
<text x="730.0" y="268" font-size="10" fill="#1A1A2E" text-anchor="middle">remix</text>
<text x="50.0" y="282" font-size="9" fill="#6B7280" text-anchor="middle">6 oct.</text>
<text x="77.2" y="282" font-size="9" fill="#6B7280" text-anchor="middle">6 oct.</text>
<text x="104.4" y="282" font-size="9" fill="#6B7280" text-anchor="middle">6 oct.</text>
<text x="131.6" y="282" font-size="9" fill="#6B7280" text-anchor="middle">6 oct.</text>
<text x="158.8" y="282" font-size="9" fill="#6B7280" text-anchor="middle">6 oct.</text>
<text x="186.0" y="282" font-size="9" fill="#6B7280" text-anchor="middle">7 oct.</text>
<text x="213.2" y="282" font-size="9" fill="#6B7280" text-anchor="middle">7 oct.</text>
<text x="240.4" y="282" font-size="9" fill="#6B7280" text-anchor="middle">7 oct.</text>
<text x="267.6" y="282" font-size="9" fill="#6B7280" text-anchor="middle">7 oct.</text>
<text x="294.8" y="282" font-size="9" fill="#6B7280" text-anchor="middle">7 oct.</text>
<text x="322.0" y="282" font-size="9" fill="#6B7280" text-anchor="middle">7 oct.</text>
<text x="349.2" y="282" font-size="9" fill="#6B7280" text-anchor="middle">7 oct.</text>
<text x="376.4" y="282" font-size="9" fill="#6B7280" text-anchor="middle">7 oct.</text>
<text x="403.6" y="282" font-size="9" fill="#6B7280" text-anchor="middle">7 oct.</text>
<text x="430.8" y="282" font-size="9" fill="#6B7280" text-anchor="middle">7 oct.</text>
<text x="458.0" y="282" font-size="9" fill="#6B7280" text-anchor="middle">7 oct.</text>
<text x="485.2" y="282" font-size="9" fill="#6B7280" text-anchor="middle">7 oct.</text>
<text x="512.4" y="282" font-size="9" fill="#6B7280" text-anchor="middle">7 oct.</text>
<text x="539.6" y="282" font-size="9" fill="#6B7280" text-anchor="middle">7 oct.</text>
<text x="566.8" y="282" font-size="9" fill="#6B7280" text-anchor="middle">7 oct.</text>
<text x="594.0" y="282" font-size="9" fill="#6B7280" text-anchor="middle">7 oct.</text>
<text x="621.2" y="282" font-size="9" fill="#6B7280" text-anchor="middle">7 oct.</text>
<text x="648.4" y="282" font-size="9" fill="#6B7280" text-anchor="middle">7 oct.</text>
<text x="675.6" y="282" font-size="9" fill="#6B7280" text-anchor="middle">7 oct.</text>
<text x="702.8" y="282" font-size="9" fill="#6B7280" text-anchor="middle">7 oct.</text>
<text x="730.0" y="282" font-size="9" fill="#6B7280" text-anchor="middle">7 oct.</text>
<text x="390" y="300" font-size="11" font-style="italic" fill="#6B7280" text-anchor="middle">Le creux (62/93) : la loi v2 casse tout, le monde s'ajuste, tout remonte — sans toucher une règle.</text>
</svg>
