<svg xmlns="http://www.w3.org/2000/svg" viewBox="0 0 760 460" font-family="Segoe UI, Verdana, sans-serif">
<rect x="2" y="2" width="756" height="456" rx="16" fill="#FAF7F0" stroke="#E8E0D0" stroke-width="2"/>
<text x="380" y="36" font-size="20" font-weight="bold" fill="#1A1A2E" text-anchor="middle">🌌 P_sig — le sanctuaire projette plus calme que le chaos</text>
<line x1="210" y1="60" x2="210" y2="290" stroke="#E8E0D0" stroke-width="1"/><text x="210" y="306" font-size="11" fill="#6B7280" text-anchor="middle">5,5</text>
<line x1="318" y1="60" x2="318" y2="290" stroke="#E8E0D0" stroke-width="1"/><text x="318" y="306" font-size="11" fill="#6B7280" text-anchor="middle">5,75</text>
<line x1="425" y1="60" x2="425" y2="290" stroke="#E8E0D0" stroke-width="1"/><text x="425" y="306" font-size="11" fill="#6B7280" text-anchor="middle">6,0</text>
<line x1="532" y1="60" x2="532" y2="290" stroke="#E8E0D0" stroke-width="1"/><text x="532" y="306" font-size="11" fill="#6B7280" text-anchor="middle">6,25</text>
<line x1="640" y1="60" x2="640" y2="290" stroke="#E8E0D0" stroke-width="1"/><text x="640" y="306" font-size="11" fill="#6B7280" text-anchor="middle">6,5</text>
<text x="195" y="101" font-size="15" fill="#1A1A2E" text-anchor="end">fond seul</text>
<rect x="210" y="80" width="112" height="30" rx="8" fill="#6B7280"/><text x="330" y="101" font-size="14" font-weight="bold" fill="#1A1A2E">5,76</text>
<text x="195" y="153" font-size="15" fill="#1A1A2E" text-anchor="end">frais</text>
<rect x="210" y="132" width="382" height="30" rx="8" fill="#1B6CA8"/><text x="600" y="153" font-size="14" font-weight="bold" fill="#1A1A2E">6,39</text>
<text x="195" y="205" font-size="15" fill="#1A1A2E" text-anchor="end">chaos</text>
<rect x="210" y="184" width="386" height="30" rx="8" fill="#D64545"/><text x="604" y="205" font-size="14" font-weight="bold" fill="#1A1A2E">6,40</text>
<text x="195" y="257" font-size="15" fill="#1A1A2E" text-anchor="end">sanctuaire ★</text>
<rect x="210" y="236" width="314" height="30" rx="8" fill="#1E9E6A"/><text x="532" y="257" font-size="14" font-weight="bold" fill="#1A1A2E">6,23</text>
<text x="380" y="336" font-size="12" fill="#6B7280" text-anchor="middle">axe 5,5 → 6,5 (zoom gradué) · delta max 0,17 · source : sortie-pont-focal.txt</text>
<rect x="90" y="356" width="220" height="44" rx="12" fill="#1B6CA8"/><text x="200" y="384" font-size="16" fill="white" text-anchor="middle">Φ avant : 27,1</text>
<text x="380" y="386" font-size="24" font-weight="bold" fill="#1E9E6A" text-anchor="middle">→ ×31,6</text>
<rect x="450" y="356" width="220" height="44" rx="12" fill="#1E9E6A"/><text x="560" y="384" font-size="16" fill="white" text-anchor="middle">Φ après : 855,6</text>
<text x="380" y="428" font-size="12" fill="#6B7280" text-anchor="middle">porteurs : 4 transports vers le centre du tore</text>
</svg>
